# xmcd
#
# Track frame offsets:
#	150
#	20390
#	32932
#	47065
#	57862
#	70295
#	81050
#	95572
#	118792
#	133797
#
# Disc length: 2029 seconds
#
# Revision: 1
# Processed by: cddbd v1.5.2PL0 Copyright (c) Steve Scherf et al.
# Submitted via: audiograbber 1.83.01
#
DISCID=8807eb0a
DTITLE=DisTanz - Fruchtig
DYEAR=1994
DGENRE=Worldmusic
TTITLE0=Fruchtiges
TTITLE1=For Jugo
TTITLE2=Vené moy voir
TTITLE3=Frankenstein sucht Krankenschein
TTITLE4=Der Hund
TTITLE5=Pollution
TTITLE6=Tschau gestern
TTITLE7=Drosophila Melanogaster
TTITLE8=Con vieture
TTITLE9=Lucky star
EXTD=
EXTT0=
EXTT1=
EXTT2=
EXTT3=
EXTT4=
EXTT5=
EXTT6=
EXTT7=
EXTT8=
EXTT9=
PLAYORDER=
